<svg xmlns="http://www.w3.org/2000/svg" version="1.1" xmlns:xlink="http://www.w3.org/1999/xlink" xmlns:svgjs="http://svgjs.dev/svgjs" width="1000" height="1000" viewBox="0 0 1000 1000"><rect width="1000" height="1000" fill="#77d4fc"></rect><g transform="matrix(0.7,0,0,0.7,150,150.00007532691507)"><svg viewBox="0 0 280 280" data-background-color="#77d4fc" preserveAspectRatio="xMidYMid meet" height="1000" width="1000" xmlns="http://www.w3.org/2000/svg" xmlns:xlink="http://www.w3.org/1999/xlink"><g id="tight-bounds" transform="matrix(1,0,0,1,0,-0.00000934359093207604)"><svg viewBox="0 0 280 280" height="280" width="280"><g><svg viewBox="0 0 280 280" height="280" width="280"><g><svg viewBox="0 0 280 280" height="280" width="280"><g id="textblocktransform"><svg viewBox="0 0 280 280" height="280" width="280" id="textblock"><g><svg viewBox="0 0 280 280" height="280" width="280"><g transform="matrix(1,0,0,1,92.8338559213508,90.50252531694167)"><svg viewBox="0 0 94.3322881572984 98.99494936611666" height="98.99494936611666" width="94.3322881572984"><g><svg version="1.0" xmlns="http://www.w3.org/2000/svg" xmlns:xlink="http://www.w3.org/1999/xlink" x="0" y="0" viewBox="0 0 95.29000091552734 100" enable-background="new 0 0 95.29 100" xml:space="preserve" width="94.3322881572984" height="98.99494936611666" class="icon-o-0" data-fill-palette-color="accent" id="o-0"><path d="M44.351 26.687l-2.163 17.592 5.446 5.717V0L45.51 17.275c-15.397 1.281-27.657 14.249-28.717 30.451l8.934-1.21C27.16 36.372 34.732 28.339 44.351 26.687zM50.907 73.468l2.185-17.747-5.443-5.713H95.29L79.25 47.834c-1.031-16.523-13.704-29.711-29.497-30.619l1.15 9.351c10.024 1.343 17.988 9.595 19.417 20.06l-17.229-2.334-5.444 5.715-0.004-0.003 0.001-0.001H0l16.79 2.275c1.05 16.218 13.323 29.207 28.732 30.48l-1.157-9.407c-9.635-1.647-17.214-9.704-18.64-19.865l16.471 2.235 5.446-5.718V100l2.116-17.188C65.551 81.902 78.224 68.71 79.25 52.181l-8.93 1.21C68.893 63.863 60.932 72.118 50.907 73.468z" fill="#000000" data-fill-palette-color="accent"></path></svg></g></svg></g><g><path d="M7.184 91.223v0l2.684-6.747 5.727 1.806-0.395 1.125-4.448-0.374c-0.983 1.261-1.707 2.554-2.174 3.881v0c-0.867 2.468-0.756 4.757 0.332 6.867 1.09 2.104 3.228 3.715 6.413 4.835 3.186 1.119 5.788 1.194 7.806 0.225 2.018-0.969 3.426-2.588 4.223-4.857 0.799-2.276 1.127-4.008 0.983-5.196v0l-3.143-2.4 0.351-1 4.51 1.8c-0.352 2.786-0.869 5.149-1.552 7.091-0.682 1.942-1.423 3.54-2.223 4.793-0.802 1.259-1.776 2.361-2.922 3.305-1.148 0.951-2.526 1.522-4.134 1.713-1.608 0.191-3.364-0.048-5.268-0.717-1.91-0.671-3.474-1.609-4.692-2.815-1.218-1.206-2.045-2.551-2.482-4.036v0c-0.868-2.962-0.733-6.061 0.404-9.299z" fill="#000000" data-fill-palette-color="primary"></path><path d="M43.936 68.371l0.673 0.422-5.142 8.215-0.674-0.422 1.166-2.42-8.038-1.449-3.936 6.289 4.551 5.963 2.283-2.034 0.673 0.422-3.655 5.839-0.674-0.422 0.605-2.579-13.042-17.578 1.222-1.952 22.391 3.7zM27.192 77.968l3.428-5.476-8.504-1.512z" fill="#000000" data-fill-palette-color="primary"></path><path d="M64.864 46.928l0.567 0.558-6.503 6.611-0.567-0.557 1.547-1.995-12.66-11.253 8.192 17.351-1.229 1.249-18.267-6.875 11.123 11.827 2.532-1.397 0.567 0.557-4.738 4.817-0.567-0.557 1.233-2.619-13.216-13.929-2.198 1.769-0.545-0.536 4.602-4.679 17.619 6.881-7.885-16.776 4.924-5.006 0.573 0.507-1.761 2.256 14.667 13.398z" fill="#000000" data-fill-palette-color="primary"></path><path d="M74.612 21.881v0c0.666 1.034 1.004 2.068 1.015 3.103 0.015 1.041-0.249 2.011-0.793 2.91v0c-1.01 1.644-2.549 3.131-4.617 4.463v0c-0.348 0.224-0.85 0.519-1.504 0.883v0l4.908 7.627 2.26-1.103 0.43 0.669-7.841 5.046-0.43-0.668 1.913-1.583-10.776-16.745-2.565 1.25-0.408-0.634 5.519-3.552 3.193-2.176c2.302-1.457 4.242-2.128 5.819-2.012 1.574 0.11 2.866 0.951 3.877 2.522zM68.965 31.938v0c1.514-0.974 2.415-2.136 2.703-3.484 0.282-1.345-0.017-2.7-0.896-4.065-0.879-1.365-1.81-2.184-2.793-2.457-0.983-0.272-2.095-0.009-3.334 0.789v0c-0.868 0.559-1.481 1.006-1.839 1.341v0l5.355 8.321c0.353-0.179 0.622-0.327 0.804-0.445z" fill="#000000" data-fill-palette-color="primary"></path><path d="M97.201 7.939l4.771 12.119c0.602 1.53 0.873 2.847 0.811 3.952-0.064 1.099-0.258 1.996-0.582 2.693-0.333 0.693-0.884 1.381-1.652 2.064-0.775 0.685-1.762 1.263-2.964 1.736v0c-2.946 1.16-5.367 1.456-7.262 0.888-1.887-0.564-3.318-2.085-4.294-4.564v0l-5.014-12.735-2.687 0.741-0.292-0.74 9.331-3.673 0.291 0.739-2.556 1.324 4.771 12.119c0.903 2.295 1.965 3.823 3.185 4.584 1.22 0.761 2.749 0.78 4.589 0.055 1.846-0.727 3.008-1.772 3.486-3.136 0.48-1.357 0.234-3.272-0.739-5.744v0l-4.663-11.843-2.399 0.583-0.351-0.892 6.23-2.452 0.377 0.957z" fill="#000000" data-fill-palette-color="primary"></path><path d="M111.789 24.162v0c-1.017-0.41-1.612-1.069-1.783-1.976v0c-0.237-1.255 0.612-2.22 2.545-2.896v0c0.726 1.944 1.723 3.198 2.99 3.761v0c1.126 0.507 2.243 0.656 3.351 0.447 1.115-0.21 2.012-0.732 2.691-1.565 0.686-0.834 0.883-2.03 0.59-3.585v0c-0.22-1.168-0.812-2.014-1.775-2.538-0.963-0.524-2.127-0.923-3.492-1.198-1.373-0.28-2.307-0.481-2.799-0.603-0.493-0.121-1.128-0.32-1.907-0.595-0.786-0.281-1.383-0.572-1.793-0.876v0c-1.054-0.825-1.704-1.888-1.949-3.189v0c-0.382-2.03 0.087-3.705 1.407-5.025 1.314-1.319 3.323-2.234 6.027-2.744v0c1.529-0.288 3.344-0.454 5.444-0.497v0l0.904 4.798-1.072 0.201-2.022-3.58c-1.139-0.138-2.266-0.102-3.381 0.108-1.115 0.21-2.017 0.743-2.706 1.599-0.689 0.856-0.903 1.975-0.644 3.357v0c0.297 1.576 1.233 2.619 2.81 3.131v0c0.784 0.233 1.694 0.441 2.731 0.626 1.044 0.184 1.8 0.325 2.268 0.423 0.463 0.106 1.089 0.293 1.879 0.559 0.79 0.266 1.395 0.56 1.815 0.882 0.42 0.322 0.831 0.777 1.232 1.364 0.4 0.581 0.671 1.249 0.813 2.004v0c0.346 1.836-0.149 3.485-1.485 4.947-1.335 1.462-3.348 2.446-6.039 2.952-2.691 0.507-4.907 0.41-6.65-0.292z" fill="#000000" data-fill-palette-color="primary"></path><path d="M144.268 0v0l7.256 0.305 0.186 6.003-1.192-0.002-1.116-4.322c-1.514-0.511-2.975-0.768-4.381-0.77v0c-2.616-0.003-4.74 0.857-6.373 2.58-1.626 1.724-2.441 4.274-2.445 7.65-0.004 3.377 0.784 5.857 2.365 7.443 1.581 1.585 3.574 2.379 5.979 2.382 2.412 0.003 4.155-0.26 5.229-0.788v0l1.228-3.759 1.059 0.001-0.21 4.851c-2.746 0.588-5.148 0.88-7.206 0.877-2.059-0.003-3.811-0.175-5.258-0.516-1.453-0.342-2.815-0.897-4.084-1.666-1.276-0.769-2.27-1.881-2.982-3.337-0.711-1.455-1.066-3.191-1.063-5.209 0.003-2.025 0.372-3.811 1.107-5.359 0.736-1.548 1.733-2.773 2.991-3.675v0c2.509-1.797 5.479-2.694 8.91-2.689z" fill="#000000" data-fill-palette-color="primary"></path><path d="M180.864 17.133c-0.712 3.217-2.304 5.662-4.776 7.335-2.478 1.671-5.419 2.13-8.822 1.376-3.396-0.752-5.865-2.408-7.406-4.969-1.541-2.561-1.956-5.45-1.244-8.667 0.714-3.224 2.309-5.668 4.786-7.333 2.478-1.671 5.416-2.131 8.812-1.379 3.403 0.753 5.875 2.411 7.416 4.972 1.536 2.553 1.948 5.441 1.234 8.665zM167.539 24.85v0c4.126 0.913 6.939-2.02 8.44-8.799v0c0.723-3.264 0.811-5.881 0.266-7.852-0.546-1.965-1.957-3.199-4.232-3.703-2.275-0.504-4.085 0.018-5.429 1.564-1.346 1.553-2.38 3.961-3.103 7.225v0c-1.501 6.779-0.148 10.634 4.058 11.565z" fill="#000000" data-fill-palette-color="primary"></path><path d="M207.259 41.223l-0.355 0.711-8.301-4.134 0.354-0.711 2.376 0.853 6.775-15.525-13.957 13.166-1.569-0.781 0.876-19.498-7.798 14.241 2.113 1.974-0.354 0.712-6.048-3.012 0.354-0.712 2.872 0.36 9.147-16.882-2.363-1.541 0.341-0.684 5.875 2.925-1.082 18.884 13.506-12.696 6.286 3.13-0.305 0.702-2.69-0.975-8.193 18.097z" fill="#000000" data-fill-palette-color="primary"></path><path d="M234.1 42.714v0c-0.776 0.954-1.655 1.596-2.635 1.928-0.984 0.337-1.989 0.387-3.013 0.149v0c-1.876-0.45-3.768-1.452-5.675-3.004v0c-0.321-0.262-0.757-0.647-1.307-1.156v0l-5.726 7.034 1.749 1.805-0.502 0.617-7.231-5.888 0.502-0.616 2.099 1.328 12.573-15.442-1.984-2.05 0.476-0.585 5.089 4.144 3.06 2.36c2.1 1.736 3.339 3.372 3.719 4.907 0.384 1.53-0.014 3.02-1.194 4.469zM222.787 40.467v0c1.396 1.137 2.78 1.633 4.15 1.488 1.366-0.15 2.561-0.854 3.587-2.113 1.025-1.259 1.515-2.398 1.468-3.418-0.046-1.019-0.641-1.994-1.784-2.924v0c-0.801-0.652-1.416-1.096-1.846-1.333v0l-6.248 7.674c0.28 0.28 0.504 0.489 0.673 0.626z" fill="#000000" data-fill-palette-color="primary"></path><path d="M239.679 73.34l-0.608 0.512-6.245-7.411 0.608-0.513 1.947 1.852 3.841-7.208-4.781-5.674-7.07 2.506 1.237 2.796-0.608 0.513-4.439-5.269 0.607-0.512 2.271 1.366 20.728-7.032 1.484 1.762-10.381 20.181zM235.672 54.461l4.163 4.941 4.044-7.632z" fill="#000000" data-fill-palette-color="primary"></path><path d="M241.727 76.031v0c0.045-1.096 0.466-1.877 1.264-2.343v0c1.103-0.644 2.297-0.169 3.582 1.426v0c-1.588 1.336-2.435 2.696-2.54 4.078v0c-0.1 1.23 0.135 2.333 0.703 3.307 0.572 0.98 1.364 1.65 2.378 2.011 1.016 0.366 2.208 0.151 3.575-0.648v0c1.027-0.599 1.625-1.441 1.796-2.523 0.17-1.083 0.156-2.313-0.044-3.692-0.197-1.388-0.32-2.334-0.371-2.84-0.051-0.505-0.077-1.17-0.079-1.995 0.001-0.834 0.075-1.495 0.223-1.983v0c0.423-1.27 1.207-2.238 2.351-2.906v0c1.784-1.041 3.519-1.161 5.206-0.361 1.684 0.795 3.219 2.381 4.606 4.757v0c0.784 1.344 1.549 2.998 2.295 4.962v0l-4.216 2.461-0.55-0.941 2.694-3.107c-0.252-1.119-0.664-2.169-1.236-3.149-0.572-0.98-1.377-1.651-2.414-2.013-1.037-0.362-2.163-0.189-3.378 0.521v0c-1.385 0.808-2.054 2.041-2.007 3.697v0c0.044 0.816 0.153 1.744 0.326 2.783 0.177 1.045 0.298 1.804 0.363 2.278 0.055 0.471 0.09 1.124 0.104 1.957 0.014 0.833-0.059 1.502-0.222 2.006-0.162 0.504-0.453 1.043-0.872 1.618-0.414 0.572-0.952 1.051-1.615 1.439v0c-1.614 0.942-3.333 1.029-5.158 0.261-1.825-0.768-3.427-2.334-4.807-4.698-1.38-2.365-2.032-4.486-1.957-6.363z" fill="#000000" data-fill-palette-color="primary"></path><path d="M251.539 94.391v0c0.231-1.072 0.78-1.77 1.645-2.092v0c1.197-0.446 2.292 0.226 3.286 2.016v0c-1.793 1.045-2.859 2.24-3.199 3.585v0c-0.308 1.195-0.266 2.321 0.128 3.378 0.396 1.063 1.063 1.859 1.999 2.387 0.939 0.535 2.15 0.525 3.634-0.027v0c1.114-0.415 1.847-1.142 2.2-2.18 0.353-1.038 0.549-2.253 0.588-3.645 0.043-1.401 0.083-2.355 0.119-2.861 0.036-0.506 0.124-1.166 0.263-1.979 0.143-0.822 0.329-1.46 0.558-1.916v0c0.634-1.179 1.571-2 2.813-2.462v0c1.935-0.721 3.666-0.543 5.191 0.534 1.523 1.071 2.765 2.896 3.726 5.473v0c0.543 1.458 1.015 3.218 1.414 5.281v0l-4.575 1.705-0.38-1.022 3.185-2.601c-0.057-1.146-0.284-2.251-0.681-3.313-0.396-1.063-1.075-1.862-2.035-2.396-0.96-0.534-2.099-0.555-3.417-0.064v0c-1.502 0.56-2.372 1.66-2.609 3.3v0c-0.096 0.812-0.147 1.744-0.153 2.798-0.004 1.06-0.014 1.829-0.032 2.307-0.026 0.474-0.104 1.123-0.232 1.946-0.128 0.824-0.315 1.47-0.561 1.938-0.246 0.469-0.625 0.951-1.136 1.446-0.505 0.493-1.117 0.873-1.837 1.141v0c-1.751 0.653-3.459 0.445-5.126-0.623-1.667-1.068-2.979-2.885-3.935-5.45-0.956-2.566-1.237-4.767-0.841-6.604z" fill="#000000" data-fill-palette-color="primary"></path><path d="M33.999 185.328v0l2.126 6.944-5.599 2.172-0.395-1.125 3.705-2.49c-0.021-1.598-0.265-3.061-0.731-4.387v0c-0.867-2.468-2.385-4.185-4.553-5.152-2.166-0.96-4.842-0.881-8.028 0.239-3.186 1.119-5.263 2.688-6.232 4.705-0.969 2.018-1.055 4.162-0.258 6.431 0.799 2.276 1.627 3.832 2.482 4.669v0l3.954-0.092 0.351 1-4.644 1.415c-1.467-2.394-2.542-4.562-3.225-6.504-0.682-1.942-1.103-3.652-1.262-5.13-0.161-1.484-0.09-2.953 0.213-4.406 0.301-1.46 1.019-2.767 2.155-3.922 1.135-1.155 2.655-2.067 4.558-2.735 1.91-0.671 3.718-0.917 5.422-0.738 1.705 0.179 3.192 0.712 4.461 1.598v0c2.53 1.769 4.363 4.271 5.5 7.508z" fill="#000000" data-fill-palette-color="primary"></path><path d="M31.642 225.295l-0.673 0.422-5.143-8.215 0.674-0.422 1.667 2.107 4.815-6.598-3.936-6.288-7.352 1.488 0.831 2.942-0.673 0.422-3.656-5.839 0.674-0.422 2.056 1.671 21.51-4.051 1.222 1.952-13.112 18.523zM30.326 206.041l3.428 5.476 5.075-6.988z" fill="#000000" data-fill-palette-color="primary"></path><path d="M54.525 249.213l-0.567 0.557-6.503-6.611 0.566-0.557 1.969 1.58 11.46-12.474-17.483 7.906-1.229-1.25 7.176-18.151-12.01 10.926 1.356 2.555-0.567 0.558-4.738-4.817 0.567-0.557 2.598 1.275 14.145-12.985-1.733-2.226 0.545-0.536 4.602 4.678-7.17 17.503 16.904-7.607 4.924 5.005-0.517 0.565-2.226-1.798-13.638 14.445z" fill="#000000" data-fill-palette-color="primary"></path><path d="M83.783 249.84v0c-0.666 1.034-1.467 1.771-2.404 2.21-0.941 0.445-1.933 0.606-2.977 0.483v0c-1.915-0.239-3.906-1.023-5.975-2.354v0c-0.348-0.224-0.824-0.559-1.426-1.003v0l-4.909 7.627 1.94 1.599-0.431 0.669-7.841-5.047 0.43-0.668 2.234 1.086 10.777-16.745-2.2-1.816 0.408-0.634 5.519 3.552 3.303 2.004c2.28 1.492 3.694 2.979 4.241 4.463 0.552 1.478 0.322 3.003-0.689 4.574zM72.29 248.867v0c1.514 0.974 2.944 1.313 4.291 1.016 1.341-0.301 2.45-1.134 3.329-2.499 0.879-1.365 1.238-2.552 1.079-3.56-0.159-1.008-0.859-1.91-2.099-2.708v0c-0.868-0.559-1.529-0.932-1.982-1.118v0l-5.356 8.321c0.309 0.248 0.555 0.43 0.738 0.548z" fill="#000000" data-fill-palette-color="primary"></path><path d="M106.5 254.412l-4.772 12.119c-0.602 1.53-1.303 2.678-2.1 3.444-0.796 0.76-1.55 1.285-2.263 1.574-0.716 0.28-1.588 0.408-2.615 0.383-1.033-0.027-2.151-0.277-3.352-0.75v0c-2.946-1.16-4.919-2.594-5.918-4.301-0.996-1.699-1.006-3.788-0.03-6.266v0l5.014-12.735-2.471-1.291 0.291-0.739 9.331 3.673-0.292 0.74-2.773-0.774-4.771 12.119c-0.903 2.295-1.168 4.136-0.795 5.524 0.373 1.388 1.48 2.445 3.32 3.169 1.846 0.727 3.409 0.754 4.688 0.082 1.277-0.666 2.402-2.234 3.375-4.706v0l4.663-11.843-2.153-1.209 0.351-0.892 6.23 2.453-0.377 0.958z" fill="#000000" data-fill-palette-color="primary"></path><path d="M109.224 275.42v0c-0.799-0.752-1.112-1.582-0.941-2.49v0c0.237-1.255 1.378-1.846 3.424-1.771v0c-0.032 2.075 0.441 3.605 1.416 4.591v0c0.864 0.882 1.85 1.427 2.958 1.636 1.115 0.21 2.141 0.051 3.077-0.478 0.943-0.528 1.561-1.569 1.854-3.124v0c0.22-1.168-0.023-2.172-0.729-3.01-0.706-0.838-1.645-1.634-2.817-2.388-1.177-0.761-1.973-1.288-2.388-1.58-0.415-0.293-0.935-0.708-1.559-1.248-0.63-0.547-1.08-1.037-1.351-1.468v0c-0.682-1.152-0.9-2.378-0.655-3.68v0c0.382-2.03 1.429-3.419 3.14-4.168 1.704-0.751 3.908-0.871 6.611-0.362v0c1.529 0.288 3.279 0.794 5.252 1.519v0l-0.904 4.797-1.072-0.202-0.581-4.071c-1.011-0.543-2.074-0.92-3.188-1.13-1.115-0.21-2.149-0.042-3.103 0.504-0.953 0.546-1.56 1.51-1.82 2.893v0c-0.297 1.576 0.195 2.889 1.477 3.939v0c0.645 0.502 1.417 1.028 2.316 1.577 0.906 0.551 1.558 0.957 1.958 1.219 0.392 0.267 0.908 0.669 1.547 1.204 0.639 0.535 1.095 1.029 1.369 1.482 0.274 0.453 0.491 1.026 0.651 1.72 0.161 0.687 0.17 1.408 0.028 2.162v0c-0.346 1.836-1.407 3.192-3.182 4.067-1.776 0.875-4.009 1.059-6.7 0.552-2.691-0.507-4.72-1.404-6.088-2.692z" fill="#000000" data-fill-palette-color="primary"></path><path d="M144.232 257.55v0l7.256 0.286 0.202 6.002-1.193 0.002-1.126-4.32c-1.516-0.508-2.977-0.76-4.383-0.758v0c-2.616 0.003-4.738 0.869-6.366 2.596-1.622 1.728-2.43 4.28-2.426 7.657 0.004 3.377 0.799 5.855 2.384 7.436 1.585 1.581 3.58 2.37 5.985 2.367 2.412-0.003 4.154-0.27 5.227-0.802v0l1.218-3.762 1.06-0.001-0.198 4.851c-2.744 0.595-5.145 0.893-7.204 0.896-2.059 0.003-3.812-0.165-5.259-0.503-1.454-0.338-2.817-0.89-4.089-1.656-1.278-0.766-2.275-1.876-2.99-3.328-0.715-1.453-1.074-3.188-1.076-5.206-0.003-2.025 0.362-3.812 1.093-5.362 0.732-1.55 1.725-2.778 2.981-3.683v0c2.505-1.804 5.472-2.708 8.904-2.712z" fill="#000000" data-fill-palette-color="primary"></path><path d="M179.554 262.919c0.712 3.217 0.301 6.106-1.234 8.665-1.541 2.561-4.014 4.218-7.417 4.972-3.396 0.752-6.334 0.292-8.812-1.379-2.478-1.671-4.074-4.115-4.785-7.333-0.714-3.224-0.299-6.113 1.243-8.667 1.541-2.561 4.01-4.217 7.407-4.969 3.403-0.753 6.344-0.294 8.822 1.376 2.47 1.666 4.062 4.111 4.776 7.335zM170.731 275.54v0c4.126-0.913 5.439-4.76 3.937-11.539v0c-0.723-3.264-1.747-5.674-3.072-7.232-1.324-1.551-3.124-2.074-5.4-1.571-2.275 0.504-3.696 1.74-4.262 3.71-0.565 1.976-0.486 4.596 0.237 7.859v0c1.501 6.779 4.354 9.703 8.56 8.773z" fill="#000000" data-fill-palette-color="primary"></path><path d="M213.724 257.73l0.354 0.712-8.301 4.134-0.354-0.711 2.112-1.383-8.307-14.761 2.097 19.072-1.569 0.781-15.033-12.448 6.666 14.805 2.85-0.497 0.354 0.712-6.048 3.012-0.354-0.712 2.017-2.075-7.961-17.473-2.654 0.958-0.341-0.684 5.875-2.926 14.419 12.242-1.994-18.43 6.285-3.13 0.377 0.666-2.4 1.56 9.507 17.443z" fill="#000000" data-fill-palette-color="primary"></path><path d="M223.4 230.116v0c0.776 0.954 1.228 1.944 1.354 2.971 0.131 1.032-0.024 2.026-0.464 2.981v0c-0.821 1.746-2.185 3.396-4.092 4.948v0c-0.321 0.262-0.787 0.61-1.397 1.045v0l5.727 7.034 2.123-1.348 0.501 0.617-7.23 5.887-0.502-0.616 1.726-1.786-12.574-15.442-2.409 1.528-0.476-0.585 5.089-4.144 2.931-2.518c2.126-1.704 3.979-2.587 5.559-2.647 1.576-0.066 2.954 0.626 4.134 2.075zM218.908 240.739v0c1.396-1.137 2.162-2.391 2.297-3.763 0.13-1.368-0.317-2.681-1.342-3.94-1.025-1.259-2.041-1.969-3.049-2.131-1.007-0.161-2.083 0.224-3.226 1.155v0c-0.801 0.652-1.36 1.165-1.678 1.537v0l6.248 7.674c0.331-0.217 0.581-0.394 0.75-0.532z" fill="#000000" data-fill-palette-color="primary"></path><path d="M250.77 221.977l0.608 0.512-6.245 7.411-0.608-0.512 1.495-2.232-7.755-2.564-4.781 5.674 3.669 6.543 2.545-1.693 0.608 0.512-4.439 5.268-0.608-0.512 0.961-2.469-10.444-19.235 1.484-1.761 21.649 6.808zM232.844 229.127l4.164-4.941-8.208-2.691z" fill="#000000" data-fill-palette-color="primary"></path><path d="M253.689 216.923v0c-0.976 0.5-1.863 0.517-2.661 0.051v0c-1.103-0.644-1.276-1.917-0.52-3.819v0c1.944 0.726 3.544 0.795 4.801 0.206v0c1.121-0.518 1.965-1.264 2.533-2.238 0.572-0.98 0.766-1.999 0.582-3.059-0.181-1.065-0.954-1.997-2.321-2.795v0c-1.027-0.599-2.053-0.707-3.08-0.323-1.027 0.384-2.091 1.002-3.194 1.853-1.112 0.853-1.875 1.427-2.29 1.719-0.415 0.293-0.981 0.643-1.699 1.05-0.727 0.41-1.339 0.67-1.836 0.781v0c-1.314 0.256-2.543 0.05-3.687-0.618v0c-1.784-1.041-2.741-2.493-2.873-4.357-0.135-1.857 0.491-3.974 1.878-6.349v0c0.784-1.344 1.849-2.823 3.192-4.438v0l4.216 2.461-0.55 0.942-4.03-0.819c-0.851 0.77-1.562 1.645-2.134 2.625-0.572 0.98-0.761 2.01-0.566 3.092 0.195 1.081 0.899 1.977 2.114 2.685v0c1.385 0.808 2.787 0.785 4.207-0.07v0c0.689-0.439 1.443-0.99 2.263-1.652 0.823-0.668 1.425-1.147 1.805-1.436 0.384-0.28 0.935-0.631 1.653-1.053 0.719-0.422 1.337-0.687 1.856-0.793 0.518-0.106 1.131-0.118 1.838-0.036 0.701 0.079 1.383 0.312 2.047 0.699v0c1.614 0.942 2.535 2.396 2.763 4.363 0.229 1.967-0.347 4.132-1.728 6.496-1.38 2.365-2.907 3.975-4.579 4.832z" fill="#000000" data-fill-palette-color="primary"></path><path d="M264.518 196.417v0c-0.877 0.659-1.748 0.828-2.614 0.505v0c-1.197-0.446-1.585-1.671-1.164-3.675v0c2.04 0.383 3.628 0.178 4.765-0.616v0c1.016-0.702 1.72-1.581 2.114-2.638 0.396-1.063 0.413-2.101 0.052-3.113-0.36-1.019-1.281-1.804-2.765-2.358v0c-1.114-0.415-2.144-0.346-3.09 0.208-0.946 0.554-1.889 1.344-2.831 2.371-0.95 1.031-1.604 1.726-1.962 2.085-0.359 0.359-0.857 0.801-1.495 1.325-0.646 0.528-1.205 0.889-1.676 1.083v0c-1.251 0.476-2.497 0.483-3.738 0.02v0c-1.935-0.721-3.127-1.989-3.575-3.801-0.45-1.807-0.195-3.999 0.766-6.578v0c0.543-1.458 1.339-3.097 2.388-4.917v0l4.574 1.705-0.381 1.021-4.111-0.118c-0.707 0.904-1.258 1.887-1.654 2.951-0.396 1.063-0.406 2.111-0.03 3.143 0.377 1.032 1.224 1.794 2.542 2.285v0c1.502 0.56 2.88 0.298 4.132-0.787v0c0.604-0.551 1.253-1.222 1.948-2.015 0.697-0.799 1.208-1.373 1.534-1.723 0.33-0.341 0.813-0.781 1.449-1.32 0.636-0.539 1.2-0.905 1.692-1.098 0.493-0.193 1.094-0.31 1.806-0.35 0.704-0.042 1.416 0.071 2.135 0.34v0c1.751 0.653 2.907 1.928 3.468 3.826 0.561 1.899 0.364 4.131-0.593 6.697-0.956 2.566-2.185 4.413-3.686 5.542z" fill="#000000" data-fill-palette-color="primary"></path><path d="M2.975 142.985c0-4.759 3.858-8.616 8.617-8.616 4.759 0 8.616 3.858 8.616 8.616 0 4.759-3.858 8.616-8.616 8.617-4.759 0-8.616-3.858-8.617-8.617z" fill="#000000" data-fill-palette-color="primary"></path><path d="M259.792 142.985c0-4.759 3.858-8.616 8.616-8.616 4.759 0 8.616 3.858 8.617 8.616 0 4.759-3.858 8.616-8.617 8.617-4.759 0-8.616-3.858-8.616-8.617z" fill="#000000" data-fill-palette-color="primary"></path></g></svg></g></svg></g></svg></g></svg></g><defs></defs></svg><rect width="280" height="280" fill="none" stroke="none" visibility="hidden"></rect></g></svg></g></svg>